{
  "accessors": [
    {
      "bufferView": 2,
      "componentType": 5126,
      "count": 3491,
      "max": [
        7.9375,
        5.314799785614014,
        4.7652201652526855
      ],
      "min": [
        -7.9375,
        -2.6034998893737793,
        -0.8630210161209106
      ],
      "type": "VEC3"
    },
    {
      "bufferView": 2,
      "byteOffset": 41892,
      "componentType": 5126,
      "count": 3491,
      "type": "VEC3"
    },
    {
      "bufferView": 3,
      "componentType": 5126,
      "count": 3491,
      "type": "VEC4"
    },
    {
      "bufferView": 1,
      "componentType": 5126,
      "count": 3491,
      "type": "VEC2"
    },
    {
      "bufferView": 0,
      "componentType": 5125,
      "count": 16620,
      "type": "SCALAR"
    },
    {
      "bufferView": 2,
      "byteOffset": 83784,
      "componentType": 5126,
      "count": 824,
      "max": [
        7.666773796081543,
        4.738132953643799,
        -0.8096389770507813
      ],
      "min": [
        -7.651909828186035,
        -2.283704996109009,
        -2.6104090213775635
      ],
      "type": "VEC3"
    },
    {
      "bufferView": 2,
      "byteOffset": 93672,
      "componentType": 5126,
      "count": 824,
      "type": "VEC3"
    },
    {
      "bufferView": 3,
      "byteOffset": 55856,
      "componentType": 5126,
      "count": 824,
      "type": "VEC4"
    },
    {
      "bufferView": 1,
      "byteOffset": 27928,
      "componentType": 5126,
      "count": 824,
      "type": "VEC2"
    },
    {
      "bufferView": 0,
      "byteOffset": 66480,
      "componentType": 5125,
      "count": 3120,
      "type": "SCALAR"
    }
  ],
  "asset": {
    "generator": "fab-model-conversion",
    "version": "2.0"
  },
  "bufferViews": [
    {
      "buffer": 0,
      "byteLength": 78960,
      "target": 34963
    },
    {
      "buffer": 0,
      "byteLength": 34520,
      "byteOffset": 78960,
      "byteStride": 8,
      "target": 34962
    },
    {
      "buffer": 0,
      "byteLength": 103560,
      "byteOffset": 113480,
      "byteStride": 12,
      "target": 34962
    },
    {
      "buffer": 0,
      "byteLength": 69040,
      "byteOffset": 217040,
      "byteStride": 16,
      "target": 34962
    }
  ],
  "buffers": [
    {
      "byteLength": 286080,
      "uri": "scene.bin"
    }
  ],
  "images": [
    {
      "uri": "textures/Fabric_baseColor.png"
    },
    {
      "uri": "textures/Fabric_metallicRoughness.png"
    },
    {
      "uri": "textures/Fabric_normal.png"
    },
    {
      "uri": "textures/Metal_Legs_baseColor.png"
    },
    {
      "uri": "textures/Metal_Legs_metallicRoughness.png"
    },
    {
      "uri": "textures/Metal_Legs_normal.png"
    }
  ],
  "materials": [
    {
      "doubleSided": true,
      "name": "Fabric",
      "normalTexture": {
        "index": 2
      },
      "pbrMetallicRoughness": {
        "baseColorTexture": {
          "index": 0
        },
        "metallicFactor": 0.0,
        "metallicRoughnessTexture": {
          "index": 1
        }
      }
    },
    {
      "doubleSided": true,
      "name": "Metal_Legs",
      "normalTexture": {
        "index": 5
      },
      "pbrMetallicRoughness": {
        "baseColorTexture": {
          "index": 3
        },
        "metallicRoughnessTexture": {
          "index": 4
        },
        "roughnessFactor": 0.9005741731784325
      }
    }
  ],
  "meshes": [
    {
      "name": "Object_0",
      "primitives": [
        {
          "attributes": {
            "NORMAL": 1,
            "POSITION": 0,
            "TANGENT": 2,
            "TEXCOORD_0": 3
          },
          "indices": 4,
          "material": 0,
          "mode": 4
        }
      ]
    },
    {
      "name": "Object_1",
      "primitives": [
        {
          "attributes": {
            "NORMAL": 6,
            "POSITION": 5,
            "TANGENT": 7,
            "TEXCOORD_0": 8
          },
          "indices": 9,
          "material": 1,
          "mode": 4
        }
      ]
    }
  ],
  "nodes": [
    {
      "children": [
        1
      ],
      "matrix": [
        1.0,
        0.0,
        0.0,
        0.0,
        0.0,
        2.220446049250313e-16,
        -1.0,
        0.0,
        0.0,
        1.0,
        2.220446049250313e-16,
        0.0,
        0.0,
        0.0,
        0.0,
        1.0
      ],
      "name": "Sketchfab_model"
    },
    {
      "children": [
        2,
        3
      ],
      "name": "couch_low.obj.cleaner.materialmerger.gles"
    },
    {
      "mesh": 0,
      "name": "Object_2"
    },
    {
      "mesh": 1,
      "name": "Object_3"
    }
  ],
  "samplers": [
    {
      "magFilter": 9729,
      "minFilter": 9987,
      "wrapS": 10497,
      "wrapT": 10497
    }
  ],
  "scene": 0,
  "scenes": [
    {
      "name": "Sketchfab_Scene",
      "nodes": [
        0
      ]
    }
  ],
  "textures": [
    {
      "sampler": 0,
      "source": 0
    },
    {
      "sampler": 0,
      "source": 1
    },
    {
      "sampler": 0,
      "source": 2
    },
    {
      "sampler": 0,
      "source": 3
    },
    {
      "sampler": 0,
      "source": 4
    },
    {
      "sampler": 0,
      "source": 5
    }
  ]
}
